<svg width="32" height="32" viewBox="0 0 32 32" fill="none" xmlns="http://www.w3.org/2000/svg">
<path fill-rule="evenodd" clip-rule="evenodd" d="M16 32C24.8366 32 32 24.8366 32 16C32 7.16344 24.8366 0 16 0C7.16344 0 0 7.16344 0 16C0 24.8366 7.16344 32 16 32Z" fill="#C0DDEB"/>
<rect x="8" y="16" width="16" height="6" fill="#F2C14A"/>
<rect x="8" y="10" width="16" height="2" fill="#F2C14A"/>
<path fill-rule="evenodd" clip-rule="evenodd" d="M24 8H8C6.89 8 6.01 8.89 6.01 10L6 22C6 23.11 6.89 24 8 24H24C25.11 24 26 23.11 26 22V10C26 8.89 25.11 8 24 8ZM24 22H8V16H24V22ZM8 12H24V10H8V12Z" fill="#273456"/>
</svg>
