<svg width="40" height="40" viewBox="0 0 40 40" fill="none" xmlns="http://www.w3.org/2000/svg">
<path fill-rule="evenodd" clip-rule="evenodd" d="M6.6665 19.9994C6.6665 12.6493 12.6498 6.66602 19.9998 6.66602C27.3498 6.66602 33.3332 12.6493 33.3332 19.9994C33.3332 23.0327 32.2998 25.816 30.5998 28.0494C28.2165 25.1494 22.4332 24.166 19.9998 24.166C17.5665 24.166 11.7832 25.1494 9.39984 28.0494C7.69984 25.816 6.6665 23.0327 6.6665 19.9994ZM14.1665 15.8327C14.1665 19.066 16.7665 21.666 19.9998 21.666C23.2332 21.666 25.8332 19.066 25.8332 15.8327C25.8332 12.5993 23.2332 9.99935 19.9998 9.99935C16.7665 9.99935 14.1665 12.5993 14.1665 15.8327ZM11.7832 30.466C12.4998 28.966 16.8665 27.4993 19.9998 27.4993C23.1332 27.4993 27.5165 28.966 28.2165 30.466C25.9498 32.266 23.0998 33.3327 19.9998 33.3327C16.8998 33.3327 14.0498 32.266 11.7832 30.466ZM17.4998 15.8327C17.4998 17.216 18.6165 18.3327 19.9998 18.3327C21.3832 18.3327 22.4998 17.216 22.4998 15.8327C22.4998 14.4493 21.3832 13.3327 19.9998 13.3327C18.6165 13.3327 17.4998 14.4493 17.4998 15.8327Z" fill="#F2C14A"/>
<path fill-rule="evenodd" clip-rule="evenodd" d="M19.9999 3.33301C10.7999 3.33301 3.33325 10.7997 3.33325 19.9997C3.33325 29.1997 10.7999 36.6663 19.9999 36.6663C29.1999 36.6663 36.6666 29.1997 36.6666 19.9997C36.6666 10.7997 29.1999 3.33301 19.9999 3.33301ZM11.7833 30.4663C12.4999 28.9663 16.8666 27.4997 19.9999 27.4997C23.1333 27.4997 27.5166 28.9663 28.2166 30.4663C25.9499 32.2663 23.0999 33.333 19.9999 33.333C16.8999 33.333 14.0499 32.2663 11.7833 30.4663ZM19.9999 24.1663C22.4333 24.1663 28.2166 25.1497 30.5999 28.0497C32.2999 25.8163 33.3333 23.033 33.3333 19.9997C33.3333 12.6497 27.3499 6.66634 19.9999 6.66634C12.6499 6.66634 6.66659 12.6497 6.66659 19.9997C6.66659 23.033 7.69992 25.8163 9.39992 28.0497C11.7833 25.1497 17.5666 24.1663 19.9999 24.1663Z" fill="#273456"/>
<path fill-rule="evenodd" clip-rule="evenodd" d="M14.1665 15.8333C14.1665 12.6 16.7665 10 19.9998 10C23.2332 10 25.8332 12.6 25.8332 15.8333C25.8332 19.0667 23.2332 21.6667 19.9998 21.6667C16.7665 21.6667 14.1665 19.0667 14.1665 15.8333ZM17.4998 15.8333C17.4998 17.2167 18.6165 18.3333 19.9998 18.3333C21.3832 18.3333 22.4998 17.2167 22.4998 15.8333C22.4998 14.45 21.3832 13.3333 19.9998 13.3333C18.6165 13.3333 17.4998 14.45 17.4998 15.8333Z" fill="#273456"/>
</svg>
