<svg width="32" height="32" viewBox="0 0 32 32" fill="none" xmlns="http://www.w3.org/2000/svg">
<path fill-rule="evenodd" clip-rule="evenodd" d="M16 32C24.8366 32 32 24.8366 32 16C32 7.16344 24.8366 0 16 0C7.16344 0 0 7.16344 0 16C0 24.8366 7.16344 32 16 32Z" fill="#C0DDEB"/>
<path fill-rule="evenodd" clip-rule="evenodd" d="M9 17C9 13.14 12.14 10 16 10C19.86 10 23 13.14 23 17C23 20.86 19.86 24 16 24C12.14 24 9 20.86 9 17ZM11.35 17.46L14.53 20.64L20.53 14.64L19.47 13.58L14.54 18.53L12.41 16.4L11.35 17.46Z" fill="#F2C14A"/>
<path d="M14.5416 18.5301L12.4116 16.4001L11.3516 17.4601L14.5316 20.6401L20.5316 14.6401L19.4716 13.5801L14.5416 18.5301Z" fill="#273456"/>
<rect x="21.3379" y="5.81152" width="6.00012" height="2.00004" transform="rotate(39.8356 21.3379 5.81152)" fill="#273456"/>
<rect x="10.6641" y="5.81055" width="2.00004" height="6.00012" transform="rotate(50.1644 10.6641 5.81055)" fill="#273456"/>
<path fill-rule="evenodd" clip-rule="evenodd" d="M7 17C7 12.03 11.03 8 16 8C20.97 8 25 12.03 25 17C25 21.97 20.97 26 16 26C11.03 26 7 21.97 7 17ZM9 17C9 20.86 12.14 24 16 24C19.86 24 23 20.86 23 17C23 13.14 19.86 10 16 10C12.14 10 9 13.14 9 17Z" fill="#273456"/>
</svg>
