<svg width="40" height="40" viewBox="0 0 40 40" fill="none" xmlns="http://www.w3.org/2000/svg">
<path fill-rule="evenodd" clip-rule="evenodd" d="M31.5667 24.0667L26.1667 21.3667C28.3167 19.7 29.7001 17.1 29.7001 14.1667C29.7001 9.11667 25.5834 5 20.5334 5C15.4834 5 11.3667 9.11667 11.3667 14.1667C11.3667 17.7167 13.4001 20.8 16.3667 22.3167V27.75L13.3001 27.1L13.1334 27.0667C12.9667 27.0333 12.8001 27.0167 12.6001 27.0167C11.7167 27.0167 10.8834 27.3667 10.2501 28L7.91675 30.3667L16.4001 38.85C17.1167 39.5833 18.1167 40 19.1501 40H29.6501C31.2834 40 32.6667 38.8333 32.9334 37.2167L34.2667 29.3667C34.6334 27.2 33.5501 25.0667 31.5667 24.0667ZM14.7001 14.1667C14.7001 10.95 17.3167 8.33333 20.5334 8.33333C23.7501 8.33333 26.3667 10.95 26.3667 14.1667C26.3667 15.75 25.7334 17.1833 24.7001 18.2333V14.1667C24.7001 11.8667 22.8334 10 20.5334 10C18.2334 10 16.3667 11.8667 16.3667 14.1667V18.2333C15.3334 17.1833 14.7001 15.75 14.7001 14.1667ZM29.6501 36.6667L30.9834 28.8167C31.1001 28.1 30.7334 27.3833 30.0667 27.05L24.3001 24.1667H21.3667V14.1667C21.3667 13.7 21.0001 13.3333 20.5334 13.3333C20.0667 13.3333 19.7001 13.7 19.7001 14.1667V31.85L12.6167 30.3667L18.7501 36.5C18.8667 36.6 19.0001 36.6667 19.1501 36.6667H29.6501Z" fill="#273456"/>
<path d="M30.0834 27.0497L24.3167 24.1663H21.3667V14.1663C21.3667 13.6997 21 13.333 20.5334 13.333C20.0667 13.333 19.7 13.6997 19.7 14.1663V31.8497L12.6167 30.3663L18.75 36.4997C18.85 36.5997 19 36.6663 19.15 36.6663H29.65L30.9834 28.8163C31.1 28.0997 30.7334 27.383 30.0834 27.0497Z" fill="#F2C14A"/>
</svg>
