<svg width="40" height="40" viewBox="0 0 40 40" fill="none" xmlns="http://www.w3.org/2000/svg">
<path d="M29.9999 10.0003C30.9204 10.0003 31.6666 9.25413 31.6666 8.33366C31.6666 7.41318 30.9204 6.66699 29.9999 6.66699C29.0794 6.66699 28.3333 7.41318 28.3333 8.33366C28.3333 9.25413 29.0794 10.0003 29.9999 10.0003Z" fill="#F2C14A"/>
<path d="M9.99992 21.6663C10.9204 21.6663 11.6666 20.9201 11.6666 19.9997C11.6666 19.0792 10.9204 18.333 9.99992 18.333C9.07944 18.333 8.33325 19.0792 8.33325 19.9997C8.33325 20.9201 9.07944 21.6663 9.99992 21.6663Z" fill="#F2C14A"/>
<path d="M29.9999 33.3665C30.9204 33.3665 31.6666 32.6203 31.6666 31.6999C31.6666 30.7794 30.9204 30.0332 29.9999 30.0332C29.0794 30.0332 28.3333 30.7794 28.3333 31.6999C28.3333 32.6203 29.0794 33.3665 29.9999 33.3665Z" fill="#F2C14A"/>
<path fill-rule="evenodd" clip-rule="evenodd" d="M26.7333 28.083C27.6 27.2997 28.7333 26.7997 30 26.7997C32.6833 26.7997 34.8667 28.983 34.8667 31.6663C34.8667 34.3497 32.6833 36.533 30 36.533C27.3167 36.533 25.1333 34.3497 25.1333 31.6663C25.1333 31.2997 25.1833 30.933 25.2667 30.583L13.4 23.6497C12.5 24.483 11.3167 24.9997 10 24.9997C7.23333 24.9997 5 22.7663 5 19.9997C5 17.233 7.23333 14.9997 10 14.9997C11.3167 14.9997 12.5 15.5163 13.4 16.3497L25.15 9.49967C25.0667 9.11634 25 8.73301 25 8.33301C25 5.56634 27.2333 3.33301 30 3.33301C32.7667 3.33301 35 5.56634 35 8.33301C35 11.0997 32.7667 13.333 30 13.333C28.6833 13.333 27.5 12.8163 26.6 11.983L14.85 18.833C14.9333 19.2163 15 19.5997 15 19.9997C15 20.3997 14.9333 20.783 14.85 21.1663L26.7333 28.083ZM31.6667 8.33301C31.6667 7.41634 30.9167 6.66634 30 6.66634C29.0833 6.66634 28.3333 7.41634 28.3333 8.33301C28.3333 9.24967 29.0833 9.99967 30 9.99967C30.9167 9.99967 31.6667 9.24967 31.6667 8.33301ZM10 21.6663C9.08333 21.6663 8.33333 20.9163 8.33333 19.9997C8.33333 19.083 9.08333 18.333 10 18.333C10.9167 18.333 11.6667 19.083 11.6667 19.9997C11.6667 20.9163 10.9167 21.6663 10 21.6663ZM28.3333 31.6997C28.3333 32.6164 29.0833 33.3664 30 33.3664C30.9167 33.3664 31.6667 32.6164 31.6667 31.6997C31.6667 30.783 30.9167 30.033 30 30.033C29.0833 30.033 28.3333 30.783 28.3333 31.6997Z" fill="#273456"/>
</svg>
