<svg width="32" height="32" viewBox="0 0 32 32" fill="none" xmlns="http://www.w3.org/2000/svg">
<path fill-rule="evenodd" clip-rule="evenodd" d="M16 32C24.8366 32 32 24.8366 32 16C32 7.16344 24.8366 0 16 0C7.16344 0 0 7.16344 0 16C0 24.8366 7.16344 32 16 32Z" fill="#C0DDEB"/>
<path fill-rule="evenodd" clip-rule="evenodd" d="M8 16C8 11.58 11.58 8 16 8C20.42 8 24 11.58 24 16C24 20.42 20.42 24 16 24C11.58 24 8 20.42 8 16ZM15 13.94L12.88 11.82L10.76 13.94L11.82 15L12.88 13.94L13.94 15L15 13.94ZM16 21.5C13.67 21.5 11.69 20.04 10.89 18H21.11C20.31 20.04 18.33 21.5 16 21.5ZM19.12 13.94L20.18 15L21.24 13.94L19.12 11.82L17 13.94L18.06 15L19.12 13.94Z" fill="#F2C14A"/>
<path d="M12.8798 13.9403L13.9398 15.0003L14.9998 13.9403L12.8798 11.8203L10.7598 13.9403L11.8198 15.0003L12.8798 13.9403Z" fill="#273456"/>
<path d="M17 13.9403L18.06 15.0003L19.12 13.9403L20.18 15.0003L21.24 13.9403L19.12 11.8203L17 13.9403Z" fill="#273456"/>
<path fill-rule="evenodd" clip-rule="evenodd" d="M6 16C6 10.47 10.47 6 15.99 6C21.52 6 26 10.47 26 16C26 21.53 21.51 26 15.99 26C10.47 26 6 21.53 6 16ZM8 16C8 20.42 11.58 24 16 24C20.42 24 24 20.42 24 16C24 11.58 20.42 8 16 8C11.58 8 8 11.58 8 16Z" fill="#273456"/>
<path d="M16.0006 21.5C18.3306 21.5 20.3106 20.04 21.1106 18H10.8906C11.6906 20.04 13.6706 21.5 16.0006 21.5Z" fill="#273456"/>
</svg>
