<svg width="40" height="40" viewBox="0 0 40 40" fill="none" xmlns="http://www.w3.org/2000/svg">
<path d="M33.3334 15V25H21.6667V15H33.3334Z" fill="#F2C14A"/>
<path d="M21.6666 28.333C19.8333 28.333 18.3333 26.833 18.3333 24.9997V14.9997C18.3333 13.1663 19.8333 11.6663 21.6666 11.6663H31.6666V8.33301H8.33325V31.6663H31.6666V28.333H21.6666Z" fill="#F2C14A"/>
<path fill-rule="evenodd" clip-rule="evenodd" d="M35 12.1333V8.33333C35 6.5 33.5 5 31.6667 5H8.33333C6.48333 5 5 6.5 5 8.33333V31.6667C5 33.5 6.48333 35 8.33333 35H31.6667C33.5 35 35 33.5 35 31.6667V27.8667C35.9833 27.2833 36.6667 26.2333 36.6667 25V15C36.6667 13.7667 35.9833 12.7 35 12.1333ZM33.3333 15V25H21.6667V15H33.3333ZM8.33333 8.33333V31.6667H31.6667V28.3333H21.6667C19.8333 28.3333 18.3333 26.8333 18.3333 25V15C18.3333 13.1667 19.8333 11.6667 21.6667 11.6667H31.6667V8.33333H8.33333Z" fill="#273456"/>
<path d="M26.6667 22.5C28.0475 22.5 29.1667 21.3807 29.1667 20C29.1667 18.6193 28.0475 17.5 26.6667 17.5C25.286 17.5 24.1667 18.6193 24.1667 20C24.1667 21.3807 25.286 22.5 26.6667 22.5Z" fill="#273456"/>
</svg>
