<svg width="24" height="24" viewBox="0 0 24 24" fill="none" xmlns="http://www.w3.org/2000/svg">
<path fill-rule="evenodd" clip-rule="evenodd" d="M2 12C2 6.4775 6.47687 2 12 2C17.5231 2 22 6.4775 22 12C22 17.5225 17.5231 22 12 22C6.47687 22 2 17.5225 2 12ZM12.8259 10.6593C12.7476 9.53905 13.4323 8.51436 14.5163 8.11768C14.9156 7.9766 15.592 7.95916 16.0357 8.08279C16.209 8.13588 16.5381 8.3126 16.7724 8.47112L17.1973 8.76313L17.6651 8.61296C17.9257 8.53408 18.2722 8.40134 18.4281 8.31336C18.5765 8.23372 18.7061 8.18973 18.7061 8.21628C18.7061 8.36646 18.3845 8.87842 18.1163 9.16057C17.7517 9.55801 17.8564 9.5929 18.5931 9.32819C19.0345 9.17878 19.0436 9.17878 18.957 9.3464C18.905 9.43514 18.6361 9.74383 18.3498 10.026C17.8647 10.5114 17.8383 10.5637 17.8383 10.9703C17.8383 11.596 17.5438 12.9029 17.2485 13.6173C16.7016 14.9598 15.5317 16.3448 14.3611 17.0426C12.7137 18.0218 10.5194 18.269 8.67305 17.6956C8.05837 17.5007 7 17.0069 7 16.919C7 16.8924 7.32015 16.8575 7.7111 16.8484C8.52616 16.831 9.34122 16.6019 10.035 16.1954L10.5028 15.9132L9.96494 15.7282C9.20186 15.4627 8.51712 14.8536 8.34387 14.2802C8.29189 14.0944 8.30922 14.0853 8.79433 14.0853L9.29678 14.0762L8.87192 13.8729C8.36873 13.6166 7.90922 13.1843 7.68399 12.7428C7.51977 12.425 7.31186 11.6226 7.37212 11.5604C7.38945 11.5338 7.57175 11.5869 7.77965 11.6575C8.37701 11.8782 8.45535 11.8251 8.10884 11.4542C7.45875 10.7829 7.25913 9.78555 7.57099 8.84126L7.71864 8.41727L8.29114 8.99068C9.46175 10.1473 10.841 10.8353 12.4184 11.0385L12.8523 11.0916L12.8259 10.6593Z" fill="#F2C14A"/>
</svg>
