<svg width="24" height="24" viewBox="0 0 24 24" fill="none" xmlns="http://www.w3.org/2000/svg">
<path fill-rule="evenodd" clip-rule="evenodd" d="M2 12C2 6.47687 6.47687 2 12 2C17.5225 2 22 6.4775 22 12C22 17.5225 17.5225 22 12 22C6.4775 22 2 17.5231 2 12ZM8.89361 7.28151C8.89361 7.99451 8.33476 8.5646 7.43811 8.5646H7.42155C6.55885 8.5646 6 7.99372 6 7.28151C6 6.55341 6.57458 6 7.45467 6C8.33476 6 8.87705 6.55341 8.89361 7.28151ZM18 12.7442V17H15.4276V13.0292C15.4276 12.032 15.0559 11.3515 14.1245 11.3515C13.4141 11.3515 12.991 11.8105 12.8056 12.2535C12.7369 12.4115 12.7203 12.633 12.7203 12.8546V17H10.1479C10.1479 17 10.1819 10.2741 10.1479 9.57774H12.7203V10.629C13.0614 10.1232 13.6732 9.40306 15.0385 9.40306C16.7308 9.40306 18 10.4638 18 12.7442ZM8.72389 17V9.57774H6.15234V17H8.72389Z" fill="#F2C14A"/>
</svg>
