<svg width="40" height="40" viewBox="0 0 40 40" fill="none" xmlns="http://www.w3.org/2000/svg">
<path d="M19.8667 13.8003C20.2667 11.467 19.6001 8.98362 17.8001 7.20029C16.2334 5.61696 14.1334 4.88362 12.0667 5.00029L17.2167 10.1503L10.1501 17.217L5.00005 12.067C4.88339 14.1336 5.61672 16.217 7.18339 17.8003C8.91672 19.5336 11.3001 20.217 13.5667 19.8836C14.7501 19.717 15.9001 19.2503 16.9001 18.517L32.6667 34.2836L34.1334 32.817L18.3834 17.067C19.1667 16.067 19.6667 14.967 19.8667 13.8003Z" fill="#F2C14A"/>
<path fill-rule="evenodd" clip-rule="evenodd" d="M22.5666 16.5002L37.6833 31.6168C38.3499 32.2668 38.3499 33.3335 37.6833 33.9668L33.8499 37.8002C33.1999 38.4502 32.1499 38.4502 31.4999 37.8002L16.3166 22.6168C12.4499 24.0668 7.93327 23.2502 4.83327 20.1502C0.999936 16.3168 0.649936 10.3502 3.74994 6.11685L10.1333 12.5002L12.4999 10.1335L6.1166 3.75018C10.3666 0.65018 16.3333 1.00018 20.1666 4.83351C23.3166 8.00018 24.1166 12.6002 22.5666 16.5002ZM16.9166 18.5168L32.6833 34.2835L34.1499 32.7835L18.3999 17.0335C19.1666 16.0501 19.6666 14.9501 19.8666 13.7835C20.2833 11.4668 19.5999 8.98346 17.7999 7.18346C16.2166 5.6168 14.1333 4.88346 12.0666 5.00013L17.2166 10.1501L10.1499 17.2168L4.99993 12.0668C4.88327 14.1335 5.6166 16.2335 7.19993 17.8001C8.93327 19.5335 11.3166 20.2168 13.5833 19.8835C14.7666 19.7168 15.8999 19.2668 16.9166 18.5168Z" fill="#273456"/>
</svg>
