<svg width="32" height="32" viewBox="0 0 32 32" fill="none" xmlns="http://www.w3.org/2000/svg">
<path fill-rule="evenodd" clip-rule="evenodd" d="M16 32C24.8366 32 32 24.8366 32 16C32 7.16344 24.8366 0 16 0C7.16344 0 0 7.16344 0 16C0 24.8366 7.16344 32 16 32Z" fill="#C0DDEB"/>
<path d="M24 13V19H17V13H24Z" fill="#F2C14A"/>
<path d="M17 21C15.9 21 15 20.1 15 19V13C15 11.9 15.9 11 17 11H23V9H9V23H23V21H17Z" fill="#F2C14A"/>
<path fill-rule="evenodd" clip-rule="evenodd" d="M25 11.28V9C25 7.9 24.1 7 23 7H9C7.89 7 7 7.9 7 9V23C7 24.1 7.89 25 9 25H23C24.1 25 25 24.1 25 23V20.72C25.59 20.37 26 19.74 26 19V13C26 12.26 25.59 11.62 25 11.28ZM24 13V19H17V13H24ZM9 9V23H23V21H17C15.9 21 15 20.1 15 19V13C15 11.9 15.9 11 17 11H23V9H9Z" fill="#273456"/>
<path d="M20 17.5C20.8284 17.5 21.5 16.8284 21.5 16C21.5 15.1716 20.8284 14.5 20 14.5C19.1716 14.5 18.5 15.1716 18.5 16C18.5 16.8284 19.1716 17.5 20 17.5Z" fill="#273456"/>
</svg>
