<svg width="162" height="48" viewBox="0 0 162 48" fill="none" xmlns="http://www.w3.org/2000/svg">
<rect x="0.5" y="0.5" width="161" height="47" rx="5.5" fill="black" stroke="#A6A6A6"/>
<path fill-rule="evenodd" clip-rule="evenodd" d="M98.6148 34.8914C96.6531 34.8914 95.2176 33.9212 95.0523 32.4434L92.7695 32.4433C92.9136 35.1386 95.1449 36.8437 98.4496 36.8437C101.982 36.8437 104.202 35.0976 104.202 32.3097C104.202 30.1301 102.932 28.9019 99.8746 28.1789L98.2328 27.7757C96.3121 27.3012 95.5269 26.6813 95.5269 25.6277C95.5269 24.3059 96.7562 23.3977 98.5527 23.3977C100.349 23.3977 101.578 24.2953 101.713 25.7824H103.964C103.892 23.2113 101.733 21.4453 98.5844 21.4453C95.4027 21.4453 93.1621 23.2113 93.1621 25.7824C93.1621 27.859 94.4324 29.1387 97.1688 29.7996L99.1 30.2649C101.031 30.7395 101.847 31.432 101.847 32.5887C101.847 33.9211 100.495 34.8914 98.6148 34.8914ZM59.7625 32.5676H54.0824L52.7184 36.5954H50.3125L55.6926 21.6938H58.1922L63.5723 36.5954H61.1254L59.7625 32.5676ZM54.6707 30.709H59.1731L56.9536 24.1723H56.8915L54.6707 30.709ZM70.6574 36.709C73.3844 36.709 75.1914 34.5399 75.1914 31.1637C75.1914 27.7969 73.3738 25.6173 70.6164 25.6172C69.1975 25.5715 67.8684 26.3095 67.157 27.538H67.116V25.7309H64.9574V40.1895H67.1875V34.8082H67.2391C67.9202 36.0445 69.2479 36.7828 70.6574 36.709ZM72.8992 31.1637C72.8992 28.9641 71.7625 27.518 70.0281 27.518C68.3242 27.518 67.1781 28.9946 67.1781 31.1637C67.1781 33.3528 68.3242 34.8188 70.0281 34.8188C71.7625 34.8188 72.8992 33.3833 72.8992 31.1637ZM82.6152 36.709C85.3422 36.709 87.1492 34.5399 87.1492 31.1637C87.1492 27.7969 85.3316 25.6173 82.5742 25.6173C81.1553 25.5715 79.8262 26.3095 79.1148 27.538H79.0738V25.7309H76.9152V40.1895H79.1453V34.8082H79.1969C79.878 36.0445 81.2057 36.7828 82.6152 36.709ZM84.857 31.1637C84.857 28.9641 83.7203 27.518 81.9859 27.518C80.282 27.518 79.1359 28.9946 79.1359 31.1637C79.1359 33.3528 80.282 34.8188 81.9859 34.8188C83.7203 34.8188 84.857 33.3833 84.857 31.1637ZM109.015 23.1598V25.7309H111.081V27.4969H109.015V33.4864C109.015 34.4169 109.429 34.8505 110.337 34.8505C110.582 34.8462 110.827 34.829 111.071 34.7989V36.5543C110.662 36.6306 110.247 36.6652 109.832 36.6574C107.632 36.6574 106.775 35.8313 106.775 33.7242V27.4969H105.195V25.7309H106.775V23.1598H109.015ZM117.431 25.5973C114.291 25.5973 112.278 27.7454 112.278 31.1637C112.278 34.5915 114.271 36.7301 117.431 36.7301C120.591 36.7301 122.584 34.5915 122.584 31.1637C122.584 27.7453 120.581 25.5973 117.431 25.5973ZM120.312 31.1637C120.312 28.8188 119.238 27.4348 117.431 27.4348C115.623 27.4348 114.55 28.8294 114.55 31.1637C114.55 33.518 115.623 34.8915 117.431 34.8915C119.238 34.8915 120.312 33.518 120.312 31.1637ZM126.55 25.7309H124.423L124.423 36.5954H126.653V30.1512C126.579 29.4993 126.793 28.8474 127.24 28.3669C127.687 27.8863 128.321 27.625 128.977 27.6516C129.316 27.6417 129.654 27.6872 129.979 27.7864V25.7004C129.728 25.6442 129.472 25.6163 129.215 25.6172C127.989 25.5704 126.898 26.3897 126.602 27.5801H126.55V25.7309ZM140.261 33.4044C139.961 35.3766 138.04 36.7301 135.583 36.7301C132.422 36.7301 130.461 34.6126 130.461 31.2153C130.461 27.8075 132.433 25.5973 135.489 25.5973C138.495 25.5973 140.385 27.6622 140.385 30.9563V31.7204H132.712V31.8551C132.64 32.664 132.919 33.4646 133.479 34.0534C134.038 34.6422 134.823 34.9623 135.634 34.9325C136.717 35.0339 137.737 34.4124 138.143 33.4043L140.261 33.4044ZM138.154 30.1618H132.722C132.72 29.4283 133.012 28.7244 133.531 28.2066C134.051 27.6888 134.756 27.4 135.489 27.4044C136.217 27.3887 136.918 27.6774 137.424 28.2008C137.93 28.7243 138.194 29.435 138.154 30.1618Z" fill="white"/>
<path fill-rule="evenodd" clip-rule="evenodd" d="M79.9126 10.124H80.979V17.6369H79.9126V10.124ZM56.9182 11.4583C56.2655 10.7691 55.3382 10.4089 54.3915 10.4768H51.8052V17.637H54.3915C56.5243 17.637 57.7606 16.3221 57.7606 14.0346C57.88 13.093 57.5708 12.1475 56.9182 11.4583ZM54.2673 16.6244H52.9173V11.4887H54.2673C54.9403 11.4513 55.5947 11.7167 56.0517 12.2122C56.5086 12.7077 56.7202 13.3815 56.6286 14.0492C56.7274 14.7198 56.5188 15.3992 56.0607 15.8987C55.6027 16.3983 54.9439 16.6649 54.2673 16.6244ZM59.0169 14.9328C58.9242 13.9643 59.3887 13.027 60.2154 12.5139C61.0421 12.0009 62.0882 12.0009 62.9149 12.5139C63.7416 13.027 64.206 13.9643 64.1134 14.9328C64.2078 15.9024 63.7438 16.8416 62.9163 17.3557C62.0889 17.8698 61.0414 17.8698 60.2139 17.3557C59.3865 16.8416 58.9225 15.9024 59.0169 14.9328ZM61.5669 13.0766C62.4903 13.0766 63.0165 13.7615 63.0165 14.9328H63.0165C63.0165 16.1088 62.4903 16.7932 61.5669 16.7932C60.64 16.7932 60.1185 16.1135 60.1185 14.9328C60.1185 13.7615 60.6399 13.0766 61.5669 13.0766ZM70.888 17.6369H69.7817L68.6649 13.6572H68.5806L67.4685 17.6369H66.3728L64.8833 12.2334H65.9649L66.9329 16.3566H67.0126L68.1235 12.2334H69.1466L70.2575 16.3566H70.3419L71.3052 12.2334H72.3716L70.888 17.6369ZM74.6509 12.2334H73.6243L73.6243 17.6369H74.6907V14.4758C74.6525 14.1162 74.7731 13.7578 75.0211 13.4946C75.2691 13.2314 75.6197 13.0896 75.981 13.1065C76.7696 13.1065 77.147 13.5383 77.147 14.4067V17.6369H78.2134V14.1389C78.2915 13.6105 78.1252 13.0753 77.7614 12.6843C77.3975 12.2934 76.8756 12.0891 76.3431 12.1291C75.6552 12.0732 75.0077 12.4598 74.7306 13.0918H74.6509V12.2334ZM83.6601 12.5138C82.8333 13.0269 82.3688 13.9642 82.4614 14.9328C82.3671 15.9024 82.8312 16.8416 83.6587 17.3557C84.4862 17.8698 85.5337 17.8698 86.3612 17.3557C87.1887 16.8416 87.6528 15.9024 87.5585 14.9328C87.6511 13.9642 87.1866 13.0269 86.3598 12.5138C85.533 12.0008 84.4869 12.0008 83.6601 12.5138ZM86.461 14.9328C86.461 13.7615 85.9348 13.0766 85.0114 13.0766C84.0845 13.0766 83.563 13.7615 83.563 14.9328C83.563 16.1135 84.0845 16.7932 85.0114 16.7932C85.9349 16.7932 86.461 16.1088 86.461 14.9328ZM90.6909 14.4957C89.4054 14.5754 88.6812 15.1361 88.6812 16.1088C88.683 16.57 88.8798 17.0089 89.2229 17.317C89.5661 17.6251 90.0236 17.7737 90.4823 17.726C91.1367 17.7562 91.7567 17.4321 92.1054 16.8776H92.1897V17.6369H93.2163V13.9449C93.2163 12.8035 92.4522 12.1291 91.0976 12.1291C89.8718 12.1291 88.9987 12.7244 88.8897 13.6526H89.9222C90.0405 13.2705 90.453 13.052 91.0483 13.052C91.7772 13.052 92.1546 13.3742 92.1546 13.9449V14.4113L90.6909 14.4957ZM92.1546 15.6471V15.1953L90.8351 15.2797C90.0909 15.3295 89.7534 15.5826 89.7534 16.059C89.7534 16.5453 90.1753 16.8283 90.7554 16.8283C91.0988 16.8631 91.4417 16.757 91.7054 16.5343C91.9692 16.3117 92.1313 15.9915 92.1546 15.6471ZM96.8608 12.1438C95.4956 12.1438 94.6179 13.2254 94.6179 14.9328C94.6179 16.6444 95.4862 17.726 96.8608 17.726C97.5578 17.7517 98.2114 17.3885 98.5577 16.7832H98.6421V17.6369H99.664V10.124H98.5976V13.0918H98.5179C98.1959 12.4814 97.5502 12.112 96.8608 12.1438ZM95.7195 14.9328C95.7195 16.0789 96.2597 16.7686 97.1632 16.7686C98.062 16.7686 98.6175 16.069 98.6175 14.9375C98.6175 13.8113 98.0562 13.1018 97.1632 13.1018C96.2655 13.1018 95.7194 13.7961 95.7194 14.9328H95.7195ZM105.275 12.5139C104.448 13.027 103.983 13.9643 104.076 14.9328C103.982 15.9024 104.446 16.8416 105.273 17.3557C106.101 17.8698 107.148 17.8698 107.976 17.3557C108.803 16.8416 109.267 15.9024 109.173 14.9328C109.265 13.9643 108.801 13.027 107.974 12.5139C107.147 12.0009 106.101 12.0009 105.275 12.5139ZM108.076 14.9328C108.076 13.7615 107.549 13.0766 106.626 13.0766C105.699 13.0766 105.178 13.7615 105.178 14.9328C105.178 16.1135 105.699 16.7932 106.626 16.7932C107.55 16.7932 108.076 16.1088 108.076 14.9328ZM111.63 12.2334H110.603V17.6369H111.67V14.4758C111.632 14.1162 111.752 13.7578 112 13.4946C112.248 13.2314 112.599 13.0896 112.96 13.1065C113.749 13.1065 114.126 13.5383 114.126 14.4067V17.6369H115.192V14.1389C115.271 13.6105 115.104 13.0753 114.74 12.6843C114.377 12.2934 113.855 12.0891 113.322 12.1291C112.634 12.0732 111.987 12.4598 111.71 13.0918H111.63V12.2334ZM121.218 10.8881V12.258H122.389V13.1563H121.218V15.9348C121.218 16.5008 121.451 16.7486 121.982 16.7486C122.118 16.7482 122.254 16.74 122.389 16.724V17.6123C122.197 17.6466 122.003 17.6648 121.809 17.6668C120.623 17.6668 120.151 17.2496 120.151 16.2078V13.1562H119.293V12.258H120.151V10.8881H121.218ZM124.903 10.124H123.846L123.846 17.6369H124.912V14.481C124.879 14.1103 125.011 13.7438 125.274 13.4797C125.536 13.2156 125.902 13.0807 126.273 13.1111C127.026 13.1111 127.428 13.5482 127.428 14.4113V17.6369H128.496V14.1482C128.566 13.6226 128.399 13.0929 128.039 12.7033C127.679 12.3138 127.164 12.105 126.635 12.1338C125.936 12.0771 125.277 12.4642 124.987 13.1018H124.903V10.124ZM134.714 16.1779C134.415 17.1972 133.428 17.8557 132.372 17.7412C131.652 17.7602 130.959 17.4616 130.479 16.9245C129.998 16.3874 129.778 15.6662 129.876 14.9522C129.78 14.2362 130 13.5138 130.478 12.9722C130.956 12.4305 131.645 12.123 132.367 12.1291C133.871 12.1291 134.778 13.1563 134.778 14.8531V15.2252H130.962V15.285C130.929 15.686 131.066 16.0826 131.34 16.3773C131.614 16.672 131.999 16.8375 132.401 16.833C132.923 16.8956 133.431 16.6368 133.687 16.1779L134.714 16.1779ZM133.692 14.4365H130.962C130.958 14.0639 131.103 13.7052 131.367 13.4416C131.63 13.178 131.989 13.0321 132.362 13.0367C132.729 13.0283 133.083 13.1755 133.337 13.4421C133.59 13.7087 133.719 14.0698 133.692 14.4365Z" fill="white"/>
<path fill-rule="evenodd" clip-rule="evenodd" d="M36.7821 10.4639C36.8982 11.9809 36.4185 13.4836 35.4446 14.6526C34.4998 15.8277 33.0683 16.5046 31.5605 16.4891C31.4646 15.0157 31.9584 13.5646 32.933 12.4554C33.92 11.3312 35.2943 10.6201 36.7821 10.4639ZM41.5505 19.3779C39.8161 20.4442 38.7488 22.3246 38.7226 24.3604C38.7251 26.6636 40.1044 28.7422 42.2257 29.6394C41.8177 30.9647 41.2028 32.2171 40.4036 33.3504C39.3303 34.9559 38.205 36.5244 36.419 36.5533C35.5695 36.5729 34.9961 36.3287 34.3987 36.0742C33.7754 35.8087 33.126 35.532 32.1098 35.532C31.032 35.532 30.3535 35.8176 29.6991 36.093C29.1336 36.331 28.5861 36.5614 27.8145 36.5934C26.1135 36.6564 24.8136 34.8799 23.7013 33.2894C21.4782 30.0415 19.7471 24.1362 22.0679 20.1181C23.1577 18.1598 25.1954 16.9171 27.4354 16.8447C28.4001 16.8249 29.3258 17.1967 30.1374 17.5227C30.7581 17.772 31.312 17.9945 31.7656 17.9945C32.1643 17.9945 32.7028 17.7808 33.3304 17.5317C34.3189 17.1394 35.5285 16.6593 36.7611 16.7887C38.6764 16.8486 40.4514 17.8082 41.5505 19.3779Z" fill="white"/>
</svg>
