<svg width="192" height="24" viewBox="0 0 192 24" fill="none" xmlns="http://www.w3.org/2000/svg">
<path fill-rule="evenodd" clip-rule="evenodd" d="M43.5897 14.1718H45.1555C44.4571 17.3031 41.8327 19.4524 38.2982 19.4524C34.15 19.4524 30.8271 16.2378 30.8271 12.0644C30.8271 7.88978 34.15 4.67578 38.2982 4.67578C41.8327 4.67578 44.4571 6.82511 45.1555 9.95578H43.5897C42.9759 7.61845 41.0072 6.09511 38.2982 6.09511C34.9545 6.09511 32.351 8.66178 32.351 12.0644C32.351 15.4658 34.9545 18.0331 38.2982 18.0331C41.0072 18.0331 42.9759 16.5091 43.5897 14.1718" fill="white"/>
<path fill-rule="evenodd" clip-rule="evenodd" d="M53.2174 6.63777L50.0649 13.6711H56.3928L53.2174 6.63777ZM49.4504 15.0271L47.5878 19.1604H45.9795L52.5197 4.86377H53.9367L60.4775 19.1604H58.8685L57.006 15.0271H49.4504Z" fill="white"/>
<path fill-rule="evenodd" clip-rule="evenodd" d="M67.5239 13.1289C69.9793 13.1289 71.6093 11.7303 71.6093 9.66426C71.6093 7.66093 69.9793 6.32426 67.5239 6.32426H64.074V13.1289H67.5239ZM67.5874 4.96826C70.89 4.96826 73.0899 6.84626 73.0899 9.66426C73.0899 12.5656 70.8257 14.4856 67.3975 14.4856H64.074V19.1609H62.5718V4.96826H67.5874Z" fill="white"/>
<path fill-rule="evenodd" clip-rule="evenodd" d="M75.7344 19.1609H77.2366V4.96826H75.7344V19.1609Z" fill="white"/>
<path fill-rule="evenodd" clip-rule="evenodd" d="M86.7191 6.32444V19.1604H85.2162V6.32444H79.8618V4.96777H92.0734V6.32444H86.7191Z" fill="white"/>
<path fill-rule="evenodd" clip-rule="evenodd" d="M98.4002 6.63777L95.247 13.6711H101.576L98.4002 6.63777ZM94.6332 15.0271L92.7706 19.1604H91.1616L97.7025 4.86377H99.1195L105.66 19.1604H104.051L102.189 15.0271H94.6332Z" fill="white"/>
<path fill-rule="evenodd" clip-rule="evenodd" d="M117.722 19.1604H108.198V4.96777H109.701V17.8238H117.722V19.1604Z" fill="white"/>
<path fill-rule="evenodd" clip-rule="evenodd" d="M131.161 12.0644C131.161 9.83111 129.488 7.95245 127.161 7.95245C124.832 7.95245 123.16 9.83111 123.16 12.0644C123.16 14.2978 124.832 16.1758 127.161 16.1758C129.488 16.1758 131.161 14.2978 131.161 12.0644M134.801 12.0644C134.801 16.1964 131.521 19.4524 127.161 19.4524C122.822 19.4524 119.542 16.1964 119.542 12.0644C119.542 7.93245 122.822 4.67578 127.161 4.67578C131.521 4.67578 134.801 7.93245 134.801 12.0644" fill="#F2C14A"/>
<path fill-rule="evenodd" clip-rule="evenodd" d="M149.974 19.1604H147.201L140.302 11.3751V19.1604H136.725V4.96777H139.455L146.397 12.9618V4.96777H149.974V19.1604Z" fill="#F2C14A"/>
<path fill-rule="evenodd" clip-rule="evenodd" d="M159.942 8.11911V19.1604H156.365V8.11911H151.772V4.96777H164.513V8.11911H159.942Z" fill="#F2C14A"/>
<path fill-rule="evenodd" clip-rule="evenodd" d="M170.439 8.99561L168.577 13.7136H172.302L170.439 8.99561ZM167.392 16.7176L166.439 19.1609H162.63L168.747 4.88428H172.153L178.249 19.1609H174.461L173.487 16.7176H167.392Z" fill="#F2C14A"/>
<path fill-rule="evenodd" clip-rule="evenodd" d="M185.454 12.4611C187.042 12.4611 188.058 11.5631 188.058 10.1651C188.058 8.89177 187.042 8.07777 185.454 8.07777H183.317V12.4611H185.454ZM185.539 4.96777C189.285 4.96777 191.635 6.97111 191.635 10.1651C191.635 13.4831 189.18 15.5491 185.243 15.5491H183.317V19.1604H179.74V4.96777H185.539Z" fill="#F2C14A"/>
<path fill-rule="evenodd" clip-rule="evenodd" d="M12.0649 21.257C6.92417 21.257 2.74208 17.133 2.74208 12.0643C2.74208 9.89166 3.51211 7.89433 4.79459 6.31966L6.00608 7.51433C5.02783 8.77833 4.44507 10.355 4.44507 12.0643C4.44507 16.207 7.86321 19.5777 12.0649 19.5777C16.2659 19.5777 19.6847 16.207 19.6847 12.0643C19.6847 10.355 19.102 8.77833 18.1237 7.51433L19.3352 6.31966C20.6177 7.89433 21.3877 9.89166 21.3877 12.0643C21.3877 17.133 17.2056 21.257 12.0649 21.257M12.0649 2.87099C14.2675 2.87099 16.293 3.63033 17.8905 4.89499L16.6783 6.08966C15.6101 5.28566 14.3195 4.75766 12.9161 4.60299V15.5243H11.2131V4.60299C9.81025 4.75766 8.51966 5.28566 7.45149 6.08966L6.23932 4.89499C7.83685 3.63033 9.86231 2.87099 12.0649 2.87099M12.0649 0.166992C5.40169 0.166992 0 5.49299 0 12.0643C0 18.6343 5.40169 23.9617 12.0649 23.9617C18.7281 23.9617 24.1298 18.6343 24.1298 12.0643C24.1298 5.49299 18.7281 0.166992 12.0649 0.166992" fill="#F2C14A"/>
</svg>
