<svg width="34" height="24" viewBox="0 0 34 24" fill="none" xmlns="http://www.w3.org/2000/svg">
<rect width="33.6" height="24" rx="2.4" fill="white"/>
<mask id="mask0" mask-type="alpha" maskUnits="userSpaceOnUse" x="0" y="0" width="34" height="24">
<rect width="33.6" height="24" rx="2.4" fill="white"/>
</mask>
<g mask="url(#mask0)">
<path fill-rule="evenodd" clip-rule="evenodd" d="M0 6.4H33.6V0H0V6.4Z" fill="#DD172C"/>
<path fill-rule="evenodd" clip-rule="evenodd" d="M0 23.9996H33.6V17.5996H0V23.9996Z" fill="#DD172C"/>
<path fill-rule="evenodd" clip-rule="evenodd" d="M0 17.6004H33.6V6.40039H0V17.6004Z" fill="#FFD133"/>
<path fill-rule="evenodd" clip-rule="evenodd" d="M8.7998 11.2002H10.3998V12.0002H8.7998V11.2002Z" fill="#FFEDB1"/>
<path d="M7.27074 11.2336C7.2513 11.0004 7.43534 10.8004 7.66936 10.8004H9.93048C10.1645 10.8004 10.3485 11.0004 10.3291 11.2336L10.1236 13.7C10.0717 14.322 9.55181 14.8004 8.9277 14.8004H8.67213C8.04802 14.8004 7.5281 14.322 7.47627 13.7L7.27074 11.2336Z" stroke="#A41517" stroke-width="0.8"/>
<path fill-rule="evenodd" clip-rule="evenodd" d="M7.2002 12H10.4002V12.8H9.6002L8.8002 14.4L8.0002 12.8H7.2002V12Z" fill="#A41517"/>
<rect x="4.7998" y="9.59961" width="1.6" height="5.6" rx="0.8" fill="#A41517"/>
<rect x="11.2002" y="9.59961" width="1.6" height="5.6" rx="0.8" fill="#A41517"/>
<path fill-rule="evenodd" clip-rule="evenodd" d="M7.2002 9.28C7.2002 8.57308 7.77327 8 8.48019 8H9.12019C9.82712 8 10.4002 8.57308 10.4002 9.28C10.4002 9.45673 10.2569 9.6 10.0802 9.6H7.5202C7.34346 9.6 7.2002 9.45673 7.2002 9.28Z" fill="#A41517"/>
</g>
</svg>
