<svg width="162" height="48" viewBox="0 0 162 48" fill="none" xmlns="http://www.w3.org/2000/svg">
<rect x="0.5" y="0.5" width="161" height="47" rx="5.5" fill="black" stroke="#A6A6A6"/>
<path fill-rule="evenodd" clip-rule="evenodd" d="M57.2878 27.6716V29.8316H62.4718C62.3905 30.8489 61.9676 31.8089 61.2718 32.5556C60.2231 33.6238 58.7717 34.1992 57.2758 34.1396C54.0947 34.1396 51.5158 31.5607 51.5158 28.3796C51.5158 25.1984 54.0947 22.6196 57.2758 22.6196C58.7372 22.5957 60.1483 23.1524 61.1998 24.1676L62.7238 22.6436C61.2897 21.1914 59.3287 20.3819 57.2878 20.3996C54.3826 20.2865 51.6483 21.772 50.162 24.2708C48.6758 26.7697 48.6758 29.8814 50.162 32.3803C51.6483 34.8792 54.3826 36.3646 57.2878 36.2516C59.3659 36.3455 61.3831 35.536 62.8198 34.0316C64.077 32.6503 64.7483 30.8345 64.6918 28.9676C64.6957 28.5128 64.6555 28.0586 64.5718 27.6116L57.2878 27.6716ZM70.5958 26.0996C67.7807 26.1062 65.5034 28.3925 65.5078 31.2076C65.5122 34.0226 67.7967 36.3018 70.6118 36.2996C73.4269 36.2974 75.7078 34.0147 75.7078 31.1996C75.7276 29.8368 75.1933 28.5244 74.2273 27.563C73.2614 26.6015 71.9465 26.0734 70.5838 26.0996H70.5958ZM76.6918 31.2155C76.683 28.402 78.9543 26.1128 81.7678 26.0996C83.1305 26.0734 84.4454 26.6015 85.4113 27.563C86.3773 28.5244 86.9116 29.8368 86.8918 31.1996C86.8918 34.0131 84.6133 36.2951 81.7998 36.2995C78.9863 36.3039 76.7007 34.029 76.6918 31.2155ZM78.7582 32.5417C79.3062 33.6888 80.4997 34.3843 81.7678 34.2956C82.5638 34.2771 83.3185 33.9379 83.8608 33.355C84.4031 32.772 84.6869 31.9948 84.6478 31.1996C84.6447 29.9284 83.8649 28.7882 82.6812 28.3245C81.4976 27.8607 80.1508 28.1677 79.285 29.0984C78.4191 30.0292 78.2103 31.3947 78.7582 32.5417ZM67.5782 32.5509C68.1301 33.6972 69.327 34.3893 70.5958 34.2956H70.5838C71.3798 34.2771 72.1345 33.9379 72.6768 33.355C73.2191 32.772 73.5029 31.9948 73.4638 31.1996C73.4604 29.9273 72.679 28.7867 71.4938 28.324C70.3087 27.8613 68.9612 28.1707 68.0966 29.104C67.232 30.0373 67.0264 31.4046 67.5782 32.5509ZM107.292 26.0996C109.281 26.1728 111.019 27.4666 111.66 29.3516L111.912 29.8916L105.084 32.7116C105.512 33.6862 106.492 34.3001 107.556 34.2596C108.583 34.2622 109.536 33.7243 110.064 32.8436L111.804 34.0436C110.857 35.4613 109.261 36.3088 107.556 36.2996C106.2 36.3194 104.895 35.7873 103.94 34.8255C102.985 33.8636 102.462 32.5547 102.492 31.1996C102.409 29.8754 102.878 28.576 103.787 27.6098C104.696 26.6437 105.965 26.097 107.292 26.0996ZM104.7 31.0556C104.651 30.3058 104.905 29.5678 105.407 29.0079C105.908 28.448 106.613 28.1134 107.364 28.0796C108.155 28.0274 108.901 28.4524 109.26 29.1596L104.7 31.0556ZM101.4 35.9996H99.1558V20.9996H101.4V35.9996ZM95.4838 27.2396H95.3998C94.7158 26.4748 93.7379 26.0382 92.7118 26.0396C89.988 26.1717 87.8474 28.4186 87.8474 31.1456C87.8474 33.8726 89.988 36.1195 92.7118 36.2516C93.7412 36.2689 94.7254 35.8295 95.3998 35.0516H95.4718V35.7836C95.4718 37.7396 94.4278 38.7836 92.7478 38.7836C91.6034 38.7568 90.5887 38.0408 90.1798 36.9716L88.2238 37.7876C88.977 39.6198 90.7669 40.8114 92.7478 40.7996C95.3758 40.7996 97.5478 39.2516 97.5478 35.4836V26.3996H95.4838V27.2396ZM92.9121 34.2952L92.9158 34.2956H92.9038L92.9121 34.2952ZM94.9342 33.3329C94.4192 33.9157 93.6889 34.2631 92.9121 34.2952C91.3094 34.1521 90.0807 32.8091 90.0807 31.1996C90.0807 29.5888 91.3113 28.245 92.9158 28.1036C93.6912 28.1434 94.4176 28.4945 94.9304 29.0774C95.4433 29.6602 95.6991 30.4255 95.6398 31.1996C95.706 31.9772 95.451 32.7481 94.9342 33.3329ZM122.172 20.9996H116.808V35.9996H119.052V30.3116H122.184C123.927 30.4368 125.594 29.5778 126.504 28.0855C127.414 26.5933 127.414 24.7179 126.504 23.2256C125.594 21.7334 123.927 20.8743 122.184 20.9996H122.172ZM119.04 28.1996H122.172L122.22 28.2356C123.641 28.2356 124.794 27.0832 124.794 25.6616C124.794 24.24 123.641 23.0876 122.22 23.0876H119.04V28.1996ZM136.008 26.0396C134.338 25.9398 132.769 26.8401 132.012 28.3316L134.004 29.1596C134.405 28.42 135.205 27.987 136.044 28.0556C136.619 27.9884 137.198 28.1551 137.649 28.5184C138.1 28.8817 138.387 29.4111 138.444 29.9876V30.1436C137.723 29.762 136.919 29.5641 136.104 29.5676C133.956 29.5676 131.784 30.7676 131.784 32.9396C131.827 33.8752 132.246 34.7538 132.947 35.3753C133.647 35.9969 134.57 36.3086 135.504 36.2396C136.655 36.3222 137.759 35.77 138.384 34.7996H138.456V35.9996H140.616V30.2276C140.616 27.5996 138.624 26.0756 136.068 26.0756L136.008 26.0396ZM133.98 32.9876C133.98 33.8876 135 34.2596 135.732 34.2596L135.792 34.2956C137.144 34.2626 138.265 33.2389 138.42 31.8956C137.797 31.548 137.093 31.374 136.38 31.3916C135.252 31.3916 133.98 31.7876 133.98 32.9876ZM148.488 26.3996L145.92 32.9036H145.848L143.184 26.3996H140.784L144.78 35.4956L142.5 40.5476H144.84L150.984 26.3996H148.488ZM130.56 35.9996H128.316V20.9996H130.56V35.9996Z" fill="white"/>
<path fill-rule="evenodd" clip-rule="evenodd" d="M83.0518 14.6638C84.5122 16.116 86.8714 16.116 88.3318 14.6638C89.7535 13.1677 89.7535 10.8199 88.3318 9.32377C87.6334 8.62027 86.6831 8.22461 85.6918 8.22461C84.7005 8.22461 83.7502 8.62027 83.0518 9.32377C81.6361 10.8223 81.6361 13.1653 83.0518 14.6638ZM56.0038 14.6878C56.6197 14.0447 56.945 13.1772 56.9038 12.2878C56.9039 12.1067 56.8878 11.926 56.8558 11.7478H53.3638V12.6118H55.9678C55.95 13.156 55.7371 13.6756 55.3678 14.0758C54.5453 14.8708 53.3253 15.093 52.2753 14.6389C51.2254 14.1848 50.5517 13.1436 50.5678 11.9998C50.5417 11.2428 50.8251 10.5079 51.3526 9.9645C51.8802 9.42107 52.6064 9.11605 53.3638 9.11977C54.1173 9.0786 54.8462 9.39418 55.3318 9.97177L55.9678 9.33577C55.6606 8.98244 55.274 8.70691 54.8398 8.53177C54.3734 8.33217 53.8711 8.23008 53.3638 8.23177C52.3685 8.20959 51.4084 8.60056 50.7118 9.31177C49.6396 10.391 49.3189 12.0077 49.8978 13.4145C50.4768 14.8212 51.8426 15.7439 53.3638 15.7558C54.3556 15.7911 55.3155 15.4027 56.0038 14.6878ZM59.1598 9.28777H62.3998V8.39977H58.1998V15.5998H62.3998V14.7118H59.1598V12.4318H62.1118V11.5678H59.1598V9.28777ZM66.3358 15.5998H65.4118V9.28777H63.3958V8.39977H68.3998V9.28777H66.3358V15.5998ZM72.8518 8.39977H71.9278V15.5998H72.8518V8.39977ZM76.9558 15.5998H76.0318V9.28777H74.0158V8.39977H78.9598V9.28777H76.9558V15.5998ZM83.7358 14.0638C84.8174 15.1408 86.5662 15.1408 87.6478 14.0638C88.71 12.8928 88.71 11.1068 87.6478 9.93577C86.5662 8.85869 84.8174 8.85869 83.7358 9.93577C82.6736 11.1068 82.6736 12.8928 83.7358 14.0638ZM91.8238 8.39977H90.6958V15.5998H91.6318V9.73177L95.2918 15.5998H96.2518V8.39977H95.3278V14.0038L91.8238 8.39977Z" fill="white"/>
<path d="M88.3318 14.6638L88.5082 14.8411L88.513 14.836L88.3318 14.6638ZM83.0518 14.6638L82.87 14.8355L82.8755 14.841L83.0518 14.6638ZM88.3318 9.32377L88.5131 9.15152L88.5092 9.14764L88.3318 9.32377ZM83.0518 9.32377L82.8743 9.14758L82.8701 9.15209L83.0518 9.32377ZM56.9038 12.2878L56.6535 12.2877L56.6541 12.2993L56.9038 12.2878ZM56.0038 14.6878L56.1839 14.8612L56.1844 14.8607L56.0038 14.6878ZM56.8558 11.7478L57.1019 11.7036L57.0649 11.4978H56.8558V11.7478ZM53.3638 11.7478V11.4978H53.1138V11.7478H53.3638ZM53.3638 12.6118H53.1138V12.8618H53.3638V12.6118ZM55.9678 12.6118L56.2177 12.6199L56.2261 12.3618H55.9678V12.6118ZM55.3678 14.0758L55.5416 14.2555L55.5467 14.2506L55.5515 14.2453L55.3678 14.0758ZM52.2753 14.6389L52.1761 14.8683L52.2753 14.6389ZM50.5678 11.9998L50.8181 12.0033L50.8177 11.9911L50.5678 11.9998ZM51.3526 9.9645L51.532 10.1386L51.532 10.1386L51.3526 9.9645ZM53.3638 9.11977L53.3626 9.36977L53.37 9.3698L53.3774 9.3694L53.3638 9.11977ZM55.3318 9.97177L55.1404 10.1326L55.3158 10.3413L55.5086 10.1485L55.3318 9.97177ZM55.9678 9.33577L56.1446 9.51255L56.3094 9.34768L56.1565 9.17173L55.9678 9.33577ZM54.8398 8.53177L54.7414 8.76166L54.7463 8.76362L54.8398 8.53177ZM53.3638 8.23177L53.3582 8.48179L53.3646 8.48177L53.3638 8.23177ZM50.7118 9.31177L50.8892 9.48797L50.8904 9.48671L50.7118 9.31177ZM49.8978 13.4145L49.6666 13.5096H49.6666L49.8978 13.4145ZM53.3638 15.7558L53.3727 15.5058L53.3658 15.5058L53.3638 15.7558ZM62.3998 9.28777V9.53777H62.6498V9.28777H62.3998ZM59.1598 9.28777V9.03777H58.9098V9.28777H59.1598ZM62.3998 8.39977H62.6498V8.14977H62.3998V8.39977ZM58.1998 8.39977V8.14977H57.9498V8.39977H58.1998ZM58.1998 15.5998H57.9498V15.8498H58.1998V15.5998ZM62.3998 15.5998V15.8498H62.6498V15.5998H62.3998ZM62.3998 14.7118H62.6498V14.4618H62.3998V14.7118ZM59.1598 14.7118H58.9098V14.9618H59.1598V14.7118ZM59.1598 12.4318V12.1818H58.9098V12.4318H59.1598ZM62.1118 12.4318V12.6818H62.3618V12.4318H62.1118ZM62.1118 11.5678H62.3618V11.3178H62.1118V11.5678ZM59.1598 11.5678H58.9098V11.8178H59.1598V11.5678ZM65.4118 15.5998H65.1618V15.8498H65.4118V15.5998ZM66.3358 15.5998V15.8498H66.5858V15.5998H66.3358ZM65.4118 9.28777H65.6618V9.03777H65.4118V9.28777ZM63.3958 9.28777H63.1458V9.53777H63.3958V9.28777ZM63.3958 8.39977V8.14977H63.1458V8.39977H63.3958ZM68.3998 8.39977H68.6498V8.14977H68.3998V8.39977ZM68.3998 9.28777V9.53777H68.6498V9.28777H68.3998ZM66.3358 9.28777V9.03777H66.0858V9.28777H66.3358ZM71.9278 8.39977V8.14977H71.6778V8.39977H71.9278ZM72.8518 8.39977H73.1018V8.14977H72.8518V8.39977ZM71.9278 15.5998H71.6778V15.8498H71.9278V15.5998ZM72.8518 15.5998V15.8498H73.1018V15.5998H72.8518ZM76.0318 15.5998H75.7818V15.8498H76.0318V15.5998ZM76.9558 15.5998V15.8498H77.2058V15.5998H76.9558ZM76.0318 9.28777H76.2818V9.03777H76.0318V9.28777ZM74.0158 9.28777H73.7658V9.53777H74.0158V9.28777ZM74.0158 8.39977V8.14977H73.7658V8.39977H74.0158ZM78.9598 8.39977H79.2098V8.14977H78.9598V8.39977ZM78.9598 9.28777V9.53777H79.2098V9.28777H78.9598ZM76.9558 9.28777V9.03777H76.7058V9.28777H76.9558ZM87.6478 14.0638L87.8244 14.2411L87.833 14.2317L87.6478 14.0638ZM83.7358 14.0638L83.5504 14.232L83.5594 14.2409L83.7358 14.0638ZM87.6478 9.93577L87.8332 9.76758L87.8242 9.75862L87.6478 9.93577ZM83.7358 9.93577L83.5592 9.7584L83.5506 9.7678L83.7358 9.93577ZM90.6958 8.39977V8.14977H90.4458V8.39977H90.6958ZM91.8238 8.39977L92.0358 8.26723L91.9623 8.14977H91.8238V8.39977ZM90.6958 15.5998H90.4458V15.8498H90.6958V15.5998ZM91.6318 15.5998V15.8498H91.8818V15.5998H91.6318ZM91.6318 9.73177L91.8439 9.59947L91.3818 8.85856V9.73177H91.6318ZM95.2918 15.5998L95.0797 15.7321L95.1531 15.8498H95.2918V15.5998ZM96.2518 15.5998V15.8498H96.5018V15.5998H96.2518ZM96.2518 8.39977H96.5018V8.14977H96.2518V8.39977ZM95.3278 8.39977V8.14977H95.0778V8.39977H95.3278ZM95.3278 14.0038L95.1158 14.1363L95.5778 14.8752V14.0038H95.3278ZM88.1555 14.4865C86.7926 15.8418 84.591 15.8418 83.2281 14.4865L82.8755 14.841C84.4335 16.3903 86.9502 16.3903 88.5081 14.841L88.1555 14.4865ZM88.1506 9.49598C89.4806 10.8956 89.4806 13.0919 88.1506 14.4916L88.513 14.836C90.0265 13.2434 90.0265 10.7442 88.513 9.15156L88.1506 9.49598ZM85.6918 8.47461C86.6165 8.47461 87.5029 8.84368 88.1544 9.4999L88.5092 9.14764C87.7639 8.39686 86.7497 7.97461 85.6918 7.97461V8.47461ZM83.2292 9.4999C83.8807 8.84368 84.7671 8.47461 85.6918 8.47461V7.97461C84.6339 7.97461 83.6197 8.39686 82.8744 9.14764L83.2292 9.4999ZM83.2335 14.4921C81.9089 13.0899 81.9089 10.8976 83.2335 9.49545L82.8701 9.15209C81.3634 10.747 81.3634 13.2406 82.8701 14.8355L83.2335 14.4921ZM56.6541 12.2993C56.6921 13.1204 56.3918 13.9212 55.8233 14.5148L56.1844 14.8607C56.8476 14.1682 57.1979 13.2341 57.1535 12.2762L56.6541 12.2993ZM56.6097 11.792C56.6391 11.9556 56.6539 12.1215 56.6538 12.2877L57.1538 12.2879C57.1539 12.0919 57.1365 11.8964 57.1019 11.7036L56.6097 11.792ZM53.3638 11.9978H56.8558V11.4978H53.3638V11.9978ZM53.6138 12.6118V11.7478H53.1138V12.6118H53.6138ZM55.9678 12.3618H53.3638V12.8618H55.9678V12.3618ZM55.5515 14.2453C55.9615 13.801 56.1979 13.2241 56.2177 12.6199L55.7179 12.6036C55.7021 13.0878 55.5126 13.5502 55.1841 13.9062L55.5515 14.2453ZM52.1761 14.8683C53.3187 15.3625 54.6465 15.1208 55.5416 14.2555L55.1941 13.896C54.4442 14.6209 53.3318 14.8234 52.3746 14.4094L52.1761 14.8683ZM50.3178 11.9963C50.3003 13.2411 51.0335 14.3741 52.1761 14.8683L52.3746 14.4094C51.4173 13.9954 50.8031 13.0461 50.8178 12.0033L50.3178 11.9963ZM51.1733 9.79036C50.5983 10.3826 50.2895 11.1835 50.318 12.0084L50.8177 11.9911C50.7939 11.3022 51.0518 10.6333 51.532 10.1386L51.1733 9.79036ZM53.365 8.86977C52.5396 8.86572 51.7482 9.19813 51.1733 9.79036L51.532 10.1386C52.0122 9.64402 52.6732 9.36639 53.3626 9.36977L53.365 8.86977ZM55.5232 9.81089C54.987 9.17314 54.1821 8.82468 53.3502 8.87014L53.3774 9.3694C54.0524 9.33251 54.7054 9.61522 55.1404 10.1326L55.5232 9.81089ZM55.791 9.15899L55.155 9.79499L55.5086 10.1485L56.1446 9.51255L55.791 9.15899ZM54.7463 8.76362C55.1439 8.92399 55.4978 9.17628 55.7791 9.49981L56.1565 9.17173C55.8233 8.7886 55.4042 8.48984 54.9333 8.29992L54.7463 8.76362ZM53.3646 8.48177C53.8379 8.48019 54.3064 8.57542 54.7414 8.76161L54.9382 8.30193C54.4404 8.08892 53.9044 7.97997 53.363 7.98177L53.3646 8.48177ZM50.8904 9.48671C51.5387 8.82489 52.432 8.46107 53.3582 8.48171L53.3694 7.98183C52.305 7.95811 51.2782 8.37623 50.5332 9.13683L50.8904 9.48671ZM50.129 13.3193C49.5884 12.0056 49.8879 10.4958 50.8892 9.48797L50.5345 9.13557C49.3914 10.2861 49.0494 12.0098 49.6666 13.5096L50.129 13.3193ZM53.3658 15.5058C51.9452 15.4947 50.6697 14.633 50.129 13.3193L49.6666 13.5096C50.2839 15.0094 51.74 15.9931 53.3618 16.0058L53.3658 15.5058ZM55.8237 14.5144C55.1847 15.1782 54.2935 15.5387 53.3727 15.5059L53.3549 16.0056C54.4177 16.0435 55.4464 15.6273 56.1839 14.8612L55.8237 14.5144ZM62.3998 9.03777H59.1598V9.53777H62.3998V9.03777ZM62.1498 8.39977V9.28777H62.6498V8.39977H62.1498ZM58.1998 8.64977H62.3998V8.14977H58.1998V8.64977ZM58.4498 15.5998V8.39977H57.9498V15.5998H58.4498ZM62.3998 15.3498H58.1998V15.8498H62.3998V15.3498ZM62.1498 14.7118V15.5998H62.6498V14.7118H62.1498ZM59.1598 14.9618H62.3998V14.4618H59.1598V14.9618ZM58.9098 12.4318V14.7118H59.4098V12.4318H58.9098ZM62.1118 12.1818H59.1598V12.6818H62.1118V12.1818ZM61.8618 11.5678V12.4318H62.3618V11.5678H61.8618ZM59.1598 11.8178H62.1118V11.3178H59.1598V11.8178ZM58.9098 9.28777V11.5678H59.4098V9.28777H58.9098ZM65.4118 15.8498H66.3358V15.3498H65.4118V15.8498ZM65.1618 9.28777V15.5998H65.6618V9.28777H65.1618ZM63.3958 9.53777H65.4118V9.03777H63.3958V9.53777ZM63.1458 8.39977V9.28777H63.6458V8.39977H63.1458ZM68.3998 8.14977H63.3958V8.64977H68.3998V8.14977ZM68.6498 9.28777V8.39977H68.1498V9.28777H68.6498ZM66.3358 9.53777H68.3998V9.03777H66.3358V9.53777ZM66.5858 15.5998V9.28777H66.0858V15.5998H66.5858ZM71.9278 8.64977H72.8518V8.14977H71.9278V8.64977ZM72.1778 15.5998V8.39977H71.6778V15.5998H72.1778ZM72.8518 15.3498H71.9278V15.8498H72.8518V15.3498ZM72.6018 8.39977V15.5998H73.1018V8.39977H72.6018ZM76.0318 15.8498H76.9558V15.3498H76.0318V15.8498ZM75.7818 9.28777V15.5998H76.2818V9.28777H75.7818ZM74.0158 9.53777H76.0318V9.03777H74.0158V9.53777ZM73.7658 8.39977V9.28777H74.2658V8.39977H73.7658ZM78.9598 8.14977H74.0158V8.64977H78.9598V8.14977ZM79.2098 9.28777V8.39977H78.7098V9.28777H79.2098ZM76.9558 9.53777H78.9598V9.03777H76.9558V9.53777ZM77.2058 15.5998V9.28777H76.7058V15.5998H77.2058ZM87.4714 13.8866C86.4874 14.8666 84.8963 14.8666 83.9122 13.8866L83.5594 14.2409C84.7385 15.4151 86.6451 15.4151 87.8242 14.2409L87.4714 13.8866ZM87.4626 10.1037C88.4384 11.1794 88.4384 12.8201 87.4626 13.8958L87.833 14.2317C88.9817 12.9654 88.9817 11.0341 87.833 9.7678L87.4626 10.1037ZM83.9122 10.1129C84.8963 9.13298 86.4874 9.13298 87.4714 10.1129L87.8242 9.75862C86.6451 8.58441 84.7385 8.58441 83.5594 9.75862L83.9122 10.1129ZM83.921 13.8958C82.9452 12.8201 82.9452 11.1794 83.921 10.1037L83.5506 9.7678C82.402 11.0341 82.402 12.9654 83.5506 14.2317L83.921 13.8958ZM90.6958 8.64977H91.8238V8.14977H90.6958V8.64977ZM90.9458 15.5998V8.39977H90.4458V15.5998H90.9458ZM91.6318 15.3498H90.6958V15.8498H91.6318V15.3498ZM91.3818 9.73177V15.5998H91.8818V9.73177H91.3818ZM95.5039 15.4675L91.8439 9.59947L91.4197 9.86407L95.0797 15.7321L95.5039 15.4675ZM96.2518 15.3498H95.2918V15.8498H96.2518V15.3498ZM96.0018 8.39977V15.5998H96.5018V8.39977H96.0018ZM95.3278 8.64977H96.2518V8.14977H95.3278V8.64977ZM95.5778 14.0038V8.39977H95.0778V14.0038H95.5778ZM91.6118 8.53231L95.1158 14.1363L95.5398 13.8712L92.0358 8.26723L91.6118 8.53231Z" fill="white"/>
<path d="M12.528 9.04884C12.1369 9.51817 11.9394 10.119 11.976 10.7288V37.2728C11.9394 37.8827 12.1369 38.4835 12.528 38.9528L12.612 39.0368L27.48 24.1808V23.8328L12.612 8.96484L12.528 9.04884Z" fill="url(#paint0_linear)"/>
<path d="M32.4 29.1363L27.48 24.1803V23.8323L32.4 18.8643L32.508 18.9243L38.4 22.2723C40.08 23.2203 40.08 24.7803 38.4 25.7403L32.532 29.0763L32.4 29.1363Z" fill="url(#paint1_linear)"/>
<path d="M32.5438 29.064L27.4798 24L12.5278 38.952C13.2343 39.573 14.2827 39.6033 15.0238 39.024L32.5558 29.064" fill="url(#paint2_linear)"/>
<path d="M32.5436 18.9365L15.0116 8.97645C14.2705 8.39718 13.2221 8.42742 12.5156 9.04845L27.4796 24.0005L32.5436 18.9365Z" fill="url(#paint3_linear)"/>
<path opacity="0.2" d="M32.3998 28.9561L15.0118 38.8561C14.3003 39.3881 13.3234 39.3881 12.6118 38.8561L12.5278 38.9401L12.6118 39.0241C13.322 39.5601 14.3016 39.5601 15.0118 39.0241L32.5438 29.0641L32.3998 28.9561Z" fill="black"/>
<path opacity="0.12" fill-rule="evenodd" clip-rule="evenodd" d="M32.4 28.956L38.4 25.56C39.02 25.254 39.4632 24.6778 39.6 24C39.5381 24.7493 39.0805 25.4083 38.4 25.728L32.508 29.064L32.4 28.956ZM11.9734 37.3376C11.9932 37.8656 12.1869 38.3748 12.528 38.784L12.612 38.88L12.528 38.964C12.1483 38.5084 11.9512 37.929 11.9734 37.3376ZM11.9734 37.3376C11.974 37.3197 11.9749 37.3019 11.976 37.284V37.104C11.9713 37.1821 11.9705 37.2601 11.9734 37.3376Z" fill="black"/>
<path opacity="0.25" d="M15.0119 9.14392L38.3999 22.4399C39.0199 22.746 39.4631 23.3221 39.5999 23.9999C39.538 23.2506 39.0804 22.5916 38.3999 22.2719L15.0119 8.97592C13.3319 8.02792 11.9639 8.81992 11.9639 10.7399V10.9199C11.9999 8.98792 13.3439 8.19592 15.0119 9.14392Z" fill="white"/>
<defs>
<linearGradient id="paint0_linear" x1="20.9679" y1="-9.06992" x2="-2.83946" y2="-2.73832" gradientUnits="userSpaceOnUse">
<stop stop-color="#00A0FF"/>
<stop offset="0.01" stop-color="#00A1FF"/>
<stop offset="0.26" stop-color="#00BEFF"/>
<stop offset="0.51" stop-color="#00D2FF"/>
<stop offset="0.76" stop-color="#00DFFF"/>
<stop offset="1" stop-color="#00E3FF"/>
</linearGradient>
<linearGradient id="paint1_linear" x1="40.596" y1="11.7599" x2="11.568" y2="11.7599" gradientUnits="userSpaceOnUse">
<stop stop-color="#FFE000"/>
<stop offset="0.41" stop-color="#FFBD00"/>
<stop offset="0.78" stop-color="#FFA500"/>
<stop offset="1" stop-color="#FF9C00"/>
</linearGradient>
<linearGradient id="paint2_linear" x1="12.0885" y1="16.233" x2="-7.03523" y2="48.4009" gradientUnits="userSpaceOnUse">
<stop stop-color="#FF3A44"/>
<stop offset="1" stop-color="#C31162"/>
</linearGradient>
<linearGradient id="paint3_linear" x1="0.851648" y1="4.91566" x2="9.38759" y2="19.2802" gradientUnits="userSpaceOnUse">
<stop stop-color="#32A071"/>
<stop offset="0.07" stop-color="#2DA771"/>
<stop offset="0.48" stop-color="#15CF74"/>
<stop offset="0.8" stop-color="#06E775"/>
<stop offset="1" stop-color="#00F076"/>
</linearGradient>
</defs>
</svg>
