<svg width="24" height="24" viewBox="0 0 24 24" fill="none" xmlns="http://www.w3.org/2000/svg">
<path fill-rule="evenodd" clip-rule="evenodd" d="M12 21.272C6.88692 21.272 2.72733 17.1124 2.72733 12C2.72733 9.80858 3.49322 7.79402 4.7688 6.20576L5.97378 7.41074C5.00078 8.68564 4.42116 10.2759 4.42116 12C4.42116 16.1784 7.82091 19.5782 12 19.5782C16.1784 19.5782 19.5788 16.1784 19.5788 12C19.5788 10.2759 18.9992 8.68564 18.0262 7.41074L19.2312 6.20576C20.5068 7.79402 21.2727 9.80858 21.2727 12C21.2727 17.1124 17.1131 21.272 12 21.272ZM12 2.72733C14.1907 2.72733 16.2053 3.49322 17.7942 4.7688L16.5886 5.97378C15.5262 5.16284 14.2425 4.63028 12.8466 4.47428V15.4899H11.1528V4.47428C9.75748 4.63028 8.47383 5.16284 7.41141 5.97378L6.20576 4.7688C7.79469 3.49322 9.80926 2.72733 12 2.72733ZM12 0C5.37263 0 0 5.37196 0 12C0 18.6267 5.37263 24 12 24C18.6274 24 24 18.6267 24 12C24 5.37196 18.6274 0 12 0Z" fill="#273456"/>
</svg>
