<svg width="34" height="24" viewBox="0 0 34 24" fill="none" xmlns="http://www.w3.org/2000/svg">
<rect width="33.6" height="24" rx="2.4" fill="white"/>
<mask id="mask0" mask-type="alpha" maskUnits="userSpaceOnUse" x="0" y="0" width="34" height="24">
<rect width="33.6" height="24" rx="2.4" fill="white"/>
</mask>
<g mask="url(#mask0)">
<path fill-rule="evenodd" clip-rule="evenodd" d="M33.6 0H0V1.6H33.6V0ZM33.6 3.2H0V4.8H33.6V3.2ZM0 6.4H33.6V8H0V6.4ZM33.6 9.6H0V11.2H33.6V9.6ZM0 12.8H33.6V14.4H0V12.8ZM33.6 16H0V17.6H33.6V16ZM0 19.2H33.6V20.8H0V19.2ZM33.6 22.4H0V24H33.6V22.4Z" fill="#D02F44"/>
<rect width="14.4" height="11.2" fill="#46467F"/>
<g filter="url(#filter0_d)">
<path fill-rule="evenodd" clip-rule="evenodd" d="M3.2001 2.39961C3.2001 2.84144 2.84193 3.19961 2.4001 3.19961C1.95827 3.19961 1.6001 2.84144 1.6001 2.39961C1.6001 1.95778 1.95827 1.59961 2.4001 1.59961C2.84193 1.59961 3.2001 1.95778 3.2001 2.39961ZM6.4001 2.39961C6.4001 2.84144 6.04193 3.19961 5.6001 3.19961C5.15827 3.19961 4.8001 2.84144 4.8001 2.39961C4.8001 1.95778 5.15827 1.59961 5.6001 1.59961C6.04193 1.59961 6.4001 1.95778 6.4001 2.39961ZM8.8001 3.19961C9.24193 3.19961 9.6001 2.84144 9.6001 2.39961C9.6001 1.95778 9.24193 1.59961 8.8001 1.59961C8.35827 1.59961 8.0001 1.95778 8.0001 2.39961C8.0001 2.84144 8.35827 3.19961 8.8001 3.19961ZM12.8001 2.39961C12.8001 2.84144 12.4419 3.19961 12.0001 3.19961C11.5583 3.19961 11.2001 2.84144 11.2001 2.39961C11.2001 1.95778 11.5583 1.59961 12.0001 1.59961C12.4419 1.59961 12.8001 1.95778 12.8001 2.39961ZM4.0001 4.79961C4.44193 4.79961 4.8001 4.44144 4.8001 3.99961C4.8001 3.55778 4.44193 3.19961 4.0001 3.19961C3.55827 3.19961 3.2001 3.55778 3.2001 3.99961C3.2001 4.44144 3.55827 4.79961 4.0001 4.79961ZM8.0001 3.99961C8.0001 4.44144 7.64193 4.79961 7.2001 4.79961C6.75827 4.79961 6.4001 4.44144 6.4001 3.99961C6.4001 3.55778 6.75827 3.19961 7.2001 3.19961C7.64193 3.19961 8.0001 3.55778 8.0001 3.99961ZM10.4001 4.79961C10.8419 4.79961 11.2001 4.44144 11.2001 3.99961C11.2001 3.55778 10.8419 3.19961 10.4001 3.19961C9.95827 3.19961 9.6001 3.55778 9.6001 3.99961C9.6001 4.44144 9.95827 4.79961 10.4001 4.79961ZM12.8001 5.59961C12.8001 6.04144 12.4419 6.39961 12.0001 6.39961C11.5583 6.39961 11.2001 6.04144 11.2001 5.59961C11.2001 5.15778 11.5583 4.79961 12.0001 4.79961C12.4419 4.79961 12.8001 5.15778 12.8001 5.59961ZM8.8001 6.39961C9.24193 6.39961 9.6001 6.04144 9.6001 5.59961C9.6001 5.15778 9.24193 4.79961 8.8001 4.79961C8.35827 4.79961 8.0001 5.15778 8.0001 5.59961C8.0001 6.04144 8.35827 6.39961 8.8001 6.39961ZM6.4001 5.59961C6.4001 6.04144 6.04193 6.39961 5.6001 6.39961C5.15827 6.39961 4.8001 6.04144 4.8001 5.59961C4.8001 5.15778 5.15827 4.79961 5.6001 4.79961C6.04193 4.79961 6.4001 5.15778 6.4001 5.59961ZM2.4001 6.39961C2.84193 6.39961 3.2001 6.04144 3.2001 5.59961C3.2001 5.15778 2.84193 4.79961 2.4001 4.79961C1.95827 4.79961 1.6001 5.15778 1.6001 5.59961C1.6001 6.04144 1.95827 6.39961 2.4001 6.39961ZM4.8001 7.19961C4.8001 7.64144 4.44193 7.99961 4.0001 7.99961C3.55827 7.99961 3.2001 7.64144 3.2001 7.19961C3.2001 6.75778 3.55827 6.39961 4.0001 6.39961C4.44193 6.39961 4.8001 6.75778 4.8001 7.19961ZM7.2001 7.99961C7.64193 7.99961 8.0001 7.64144 8.0001 7.19961C8.0001 6.75778 7.64193 6.39961 7.2001 6.39961C6.75827 6.39961 6.4001 6.75778 6.4001 7.19961C6.4001 7.64144 6.75827 7.99961 7.2001 7.99961ZM11.2001 7.19961C11.2001 7.64144 10.8419 7.99961 10.4001 7.99961C9.95827 7.99961 9.6001 7.64144 9.6001 7.19961C9.6001 6.75778 9.95827 6.39961 10.4001 6.39961C10.8419 6.39961 11.2001 6.75778 11.2001 7.19961ZM12.0001 9.59961C12.4419 9.59961 12.8001 9.24144 12.8001 8.79961C12.8001 8.35778 12.4419 7.99961 12.0001 7.99961C11.5583 7.99961 11.2001 8.35778 11.2001 8.79961C11.2001 9.24144 11.5583 9.59961 12.0001 9.59961ZM9.6001 8.79961C9.6001 9.24144 9.24193 9.59961 8.8001 9.59961C8.35827 9.59961 8.0001 9.24144 8.0001 8.79961C8.0001 8.35778 8.35827 7.99961 8.8001 7.99961C9.24193 7.99961 9.6001 8.35778 9.6001 8.79961ZM5.6001 9.59961C6.04193 9.59961 6.4001 9.24144 6.4001 8.79961C6.4001 8.35778 6.04193 7.99961 5.6001 7.99961C5.15827 7.99961 4.8001 8.35778 4.8001 8.79961C4.8001 9.24144 5.15827 9.59961 5.6001 9.59961ZM3.2001 8.79961C3.2001 9.24144 2.84193 9.59961 2.4001 9.59961C1.95827 9.59961 1.6001 9.24144 1.6001 8.79961C1.6001 8.35778 1.95827 7.99961 2.4001 7.99961C2.84193 7.99961 3.2001 8.35778 3.2001 8.79961Z" fill="url(#paint0_linear)"/>
</g>
</g>
<defs>
<filter id="filter0_d" x="1.6001" y="1.59961" width="11.2" height="9" filterUnits="userSpaceOnUse" color-interpolation-filters="sRGB">
<feFlood flood-opacity="0" result="BackgroundImageFix"/>
<feColorMatrix in="SourceAlpha" type="matrix" values="0 0 0 0 0 0 0 0 0 0 0 0 0 0 0 0 0 0 127 0"/>
<feOffset dy="1"/>
<feColorMatrix type="matrix" values="0 0 0 0 0 0 0 0 0 0 0 0 0 0 0 0 0 0 0.06 0"/>
<feBlend mode="normal" in2="BackgroundImageFix" result="effect1_dropShadow"/>
<feBlend mode="normal" in="SourceGraphic" in2="effect1_dropShadow" result="shape"/>
</filter>
<linearGradient id="paint0_linear" x1="1.6001" y1="1.59961" x2="1.6001" y2="9.59961" gradientUnits="userSpaceOnUse">
<stop stop-color="white"/>
<stop offset="1" stop-color="#F0F0F0"/>
</linearGradient>
</defs>
</svg>
